HIERARCHY
ROOT Hips
{
  OFFSET -125.086 92.215 135.881
  CHANNELS 6 Xposition Yposition Zposition Zrotation Xrotation Yrotation
  JOINT LeftUpLeg
  {
    OFFSET 8.64259 1.95398 -2.38835
    CHANNELS 3 Zrotation Xrotation Yrotation
    JOINT LeftLeg
    {
      OFFSET 43.7702 0 0
      CHANNELS 3 Zrotation Xrotation Yrotation
      JOINT LeftFoot
      {
        OFFSET 40.6238 0 0
        CHANNELS 3 Zrotation Xrotation Yrotation
        JOINT LeftToeBase
        {
          OFFSET 12.7242 0 0
          CHANNELS 3 Zrotation Xrotation Yrotation
          End Site
          {
            OFFSET 0 0 0
          }
        }
      }
    }
  }
  JOINT RightUpLeg
  {
    OFFSET -8.2249 1.95398 -2.59336
    CHANNELS 3 Zrotation Xrotation Yrotation
    JOINT RightLeg
    {
      OFFSET 43.5653 0 0
      CHANNELS 3 Zrotation Xrotation Yrotation
      JOINT RightFoot
      {
        OFFSET 40.6238 0 0
        CHANNELS 3 Zrotation Xrotation Yrotation
        JOINT RightToeBase
        {
          OFFSET 12.7242 0 0
          CHANNELS 3 Zrotation Xrotation Yrotation
          End Site
          {
            OFFSET 0 0 0
          }
        }
      }
    }
  }
  JOINT Spine
  {
    OFFSET 0.165834 0.87714 6.61349
    CHANNELS 3 Zrotation Xrotation Yrotation
    JOINT Spine1
    {
      OFFSET 7.38963 1.71661e-005 0
      CHANNELS 3 Zrotation Xrotation Yrotation
      JOINT Spine2
      {
        OFFSET 11.9445 1.14441e-005 0
        CHANNELS 3 Zrotation Xrotation Yrotation
        JOINT Spine3
        {
          OFFSET 14.7254 4.19617e-005 0
          CHANNELS 3 Zrotation Xrotation Yrotation
          JOINT Spine4
          {
            OFFSET 10.9679 0 0
            CHANNELS 3 Zrotation Xrotation Yrotation
            JOINT RightShoulder
            {
              OFFSET 2.46616 -1.6653 3.69651
              CHANNELS 3 Zrotation Xrotation Yrotation
              JOINT RightArm
              {
                OFFSET 13.0012 0 0
                CHANNELS 3 Zrotation Xrotation Yrotation
                JOINT RightForeArm
                {
                  OFFSET 28.7848 1.52588e-005 0
                  CHANNELS 3 Zrotation Xrotation Yrotation
                  JOINT RightHand
                  {
                    OFFSET 26.5688 1.52588e-005 0
                    CHANNELS 3 Zrotation Xrotation Yrotation
                    End Site
                    {
                      OFFSET 0 0 0
                    }
                  }
                }
              }
            }
            JOINT LeftShoulder
            {
              OFFSET 2.38034 -1.29275 -3.7523
              CHANNELS 3 Zrotation Xrotation Yrotation
              JOINT LeftArm
              {
                OFFSET 16.3182 6.10352e-005 0
                CHANNELS 3 Zrotation Xrotation Yrotation
                JOINT LeftForeArm
                {
                  OFFSET 27.0901 0 0
                  CHANNELS 3 Zrotation Xrotation Yrotation
                  JOINT LeftHand
                  {
                    OFFSET 24.5451 1.52588e-005 0
                    CHANNELS 3 Zrotation Xrotation Yrotation
                    End Site
                    {
                      OFFSET 0 0 0
                    }
                  }
                }
              }
            }
            JOINT Neck
            {
              OFFSET 5.0226 -0.0266342 0
              CHANNELS 3 Zrotation Xrotation Yrotation
              JOINT Head
              {
                OFFSET 6.69363 2.86102e-005 0
                CHANNELS 3 Zrotation Xrotation Yrotation
                End Site
                {
                  OFFSET 0 0 0
                }
              }
            }
          }
        }
      }
    }
  }
}
MOTION
Frames:	10
Frame Time:	0.0416667
-300.716 60.8573 312.808 93.461 59.8454 92.4112 -127.432 -14.7459 159.576 93.3009 3.6027 -90.3829 34.5375 32.3922 50.1523 42.8686 -1.11829 10.4417 -170.984 -9.0406 140.749 -12.488 46.4929 -77.0482 168.326 38.2212 169.958 139.914 61.0538 70.9132 -0.0367323 2.70767 -89.5204 21.4569 0.192973 0.938339 9.7856 0.2341 0.928926 -12.7468 -0.0979571 0.952959 7.26581 -0.0979394 0.952952 117.492 -7.37433 -34.937 91.4112 -16.2263 3.91913 -133.908 -49.2122 -130.299 -14.435 6.73668 -57.0947 -62.7253 -24.4502 128.721 -50.8862 51.6801 27.2124 18.0629 23.3426 -70.4897 15.7083 -12.9455 -74.9794 -56.4684 -8.85664 -6.02102 -16.7221 -10.2752 -16.2337 
-301.013 60.6868 313.135 93.434 59.8592 92.4825 -127.453 -14.6089 159.254 94.2443 3.68869 -90.4488 33.9682 32.6596 52.0572 42.5001 -1.11943 10.5945 -170.711 -9.67536 141.385 -12.9079 45.664 -76.8056 167.98 36.6515 169.747 139.795 61.1643 71.1084 -0.042096 2.70317 -89.5329 21.466 0.175697 0.916931 9.7947 0.215892 0.908298 -12.7379 -0.107996 0.927355 7.27477 -0.107973 0.927345 117.466 -7.34063 -34.973 91.391 -16.2465 3.91091 -135.83 -48.0538 -131.723 -14.321 6.65747 -56.939 -62.6893 -24.5079 128.766 -51.1134 52.0025 27.7115 17.0509 22.6075 -70.3173 15.5172 -12.8916 -75.334 -56.4157 -8.88914 -5.93571 -16.7273 -10.2766 -16.1848 
-301.873 60.188 314.082 93.3533 59.9016 92.6923 -127.548 -14.1465 158.209 97.0903 4.01249 -90.675 32.1791 33.4092 57.9115 40.9951 -1.13415 10.6313 -169.871 -11.4943 143.208 -14.1049 43.2761 -76.1564 166.903 32.0885 169.126 139.892 61.4038 71.2413 -0.0580773 2.69025 -89.5691 21.4922 0.124781 0.854768 9.82095 0.162284 0.848441 -12.712 -0.13787 0.852758 7.30066 -0.137878 0.852762 117.391 -7.24465 -35.0759 91.3285 -16.3074 3.89055 -140.624 -44.7546 -135.148 -13.9792 6.43195 -56.5394 -62.5845 -24.6756 128.896 -51.8308 52.9288 29.2111 14.0012 20.4296 -69.8818 14.8989 -12.6863 -76.3918 -56.2595 -8.98497 -5.68554 -16.7445 -10.2763 -16.0446 
-303.239 59.3813 315.586 93.2183 59.9744 93.0353 -127.847 -13.1395 156.196 101.913 4.7137 -91.2056 28.8479 34.6669 68.3067 37.2174 -1.11689 9.25483 -168.38 -14.3275 146.04 -15.9094 39.5344 -75.2639 164.938 24.7936 168.101 141.804 61.4594 69.7375 -0.084414 2.66959 -89.6273 21.5339 0.0415504 0.755105 9.86271 0.0747538 0.752536 -12.6707 -0.187295 0.73268 7.3419 -0.187307 0.732685 117.274 -7.09427 -35.2381 91.2214 -16.41 3.86417 -146.404 -39.8698 -138.983 -13.4264 6.09522 -56.0477 -62.4161 -24.9438 129.104 -53.175 54.3866 31.7907 8.68128 16.7854 -69.4031 13.6809 -12.1766 -78.176 -56.0009 -9.14164 -5.2761 -16.7822 -10.2752 -15.8284 
-305.024 58.353 317.518 93.0267 60.0796 93.5068 -128.565 -11.1828 153.119 108.852 5.66197 -92.3 23.4478 36.2923 83.5083 29.6417 -0.544475 4.3431 -166.051 -17.9811 149.632 -17.7489 34.6936 -74.3261 161.722 15.2934 166.681 148.525 60.4724 63.6514 -0.120996 2.64213 -89.7058 21.5894 -0.0727253 0.621164 9.91833 -0.0453077 0.623758 -12.6158 -0.256054 0.570596 7.39684 -0.256057 0.570601 117.121 -6.89698 -35.4511 91.0674 -16.5551 3.83696 -151.727 -34.302 -142.143 -12.7324 5.70487 -55.6116 -62.1889 -25.3026 129.383 -55.4008 56.2804 35.6424 0.496341 11.6084 -69.2986 11.5346 -11.0358 -80.6814 -55.638 -9.35662 -4.70926 -16.8522 -10.2718 -15.5568 
-307.118 57.323 319.68 92.775 60.2188 94.1037 -129.804 -8.01641 149.643 117.946 6.00723 -93.9755 16.1432 37.8267 101.455 16.955 2.34489 -5.64648 -162.616 -22.1777 153.627 -18.4078 29.068 -73.4287 156.669 4.63129 164.974 162.683 55.7606 50.3606 -0.167584 2.60851 -89.8031 21.6572 -0.216878 0.456129 9.98623 -0.1966 0.465232 -12.5486 -0.343943 0.369867 7.46403 -0.343931 0.369858 116.939 -6.65973 -35.7073 90.8647 -16.7434 3.81289 -156.025 -28.9002 -144.358 -11.9982 5.31849 -55.3068 -61.9073 -25.7424 129.727 -58.8958 58.466 41.0855 -11.5276 5.02157 -70.3616 8.0282 -8.72828 -83.6735 -55.1668 -9.62662 -3.98462 -16.9678 -10.2634 -15.2523 
-309.463 56.4948 321.968 92.4585 60.3934 94.824 -131.411 -3.97885 147.021 119.357 5.55803 -94.735 6.45367 47.1959 127.009 -2.03191 10.3198 -17.6555 -158.013 -26.4088 157.635 -16.3337 23.2606 -72.469 149.321 -5.78205 163.27 -179.513 40.9272 33.3426 -0.224019 2.56936 -89.9174 21.7358 -0.389667 0.263187 10.0648 -0.377716 0.280083 -12.4707 -0.45076 0.13391 7.54194 -0.450758 0.133905 116.732 -6.38928 -35.9987 90.6117 -16.9757 3.79493 -159.269 -24.1706 -145.779 -11.3068 4.97316 -55.1396 -61.5752 -26.2534 130.13 -64.178 60.7147 48.5635 -28.4258 -2.03268 -73.8082 2.86341 -4.46808 -86.1187 -54.5818 -9.94725 -3.10077 -17.143 -10.2468 -14.9376 
-312.09 55.821 324.454 92.0707 60.6045 95.6665 -133.254 0.449208 145.771 -108.531 -6.5322 -89.3684 -30.5108 -62.629 82.0153 -30.1111 21.4384 -20.4657 -152.615 -30.0812 161.348 -10.5116 18.4038 -71.0494 139.94 -15.1945 162.124 -167.585 10.5914 20.6146 -0.290085 2.5254 -90.0471 21.8236 -0.589715 0.0457056 10.1527 -0.587147 0.0716173 -12.3835 -0.576194 -0.133647 7.62919 -0.576196 -0.133649 116.508 -6.09237 -36.3176 90.3073 -17.2527 3.78556 -161.631 -20.2689 -146.642 -10.7004 4.68194 -55.0809 -61.1969 -26.8257 130.587 -71.7968 62.6715 58.5447 -49.609 -7.04248 -80.3653 -3.54468 0.94702 -86.0322 -53.8766 -10.3121 -2.05648 -17.3915 -10.2183 -14.6345 
-314.99 55.2121 327.171 91.6042 60.8529 96.6312 -135.456 5.39378 145.464 -84.0161 -3.63754 -84.8618 10.1437 -60.9264 140.181 -68.1335 18.9615 -4.36494 -146.989 -32.8276 164.367 -1.40082 15.7751 -68.3004 129.565 -24.7202 161.8 -166.128 -24.9013 12.2051 -0.365501 2.47729 -90.1902 21.9192 -0.8155 -0.192895 10.2485 -0.823193 -0.156822 -12.2882 -0.719821 -0.429072 7.72445 -0.71982 -0.429078 116.271 -5.77554 -36.6564 89.9505 -17.5751 3.7868 -163.316 -17.1378 -147.138 -10.1853 4.44201 -55.0968 -60.7766 -27.4496 131.09 -81.991 63.832 71.1814 -71 -7.46367 -88.4558 -9.94671 6.16884 -83.4795 -53.0449 -10.7128 -0.85168 -17.7256 -10.174 -14.3617 
-318.058 54.7308 330.066 91.0503 61.1382 97.7195 -138.137 11.185 145.486 -77.5052 -2.43516 -86.7618 -9.88993 -35.9938 144.544 -89.4998 -15.5767 16.1458 -141.657 -34.5576 166.126 9.12801 16.3792 -63.4636 119.303 -36.3264 161.149 -175.96 -46.8 2.25627 -0.449847 2.42552 -90.3451 22.0216 -1.06531 -0.449255 10.351 -1.08407 -0.401924 -12.1861 -0.881047 -0.748677 7.82657 -0.88104 -0.748677 116.026 -5.44514 -37.0082 89.5403 -17.9436 3.80035 -164.488 -14.6542 -147.389 -9.75192 4.24511 -55.1615 -60.3181 -28.1163 131.634 -94.0962 63.6211 85.7202 -88.0292 -3.57497 -95.2562 -15.22 9.7286 -78.9747 -52.0809 -11.139 0.511475 -18.1545 -10.1102 -14.1331 
